/* XPM */
static char *_231231630401596[] = {
/* columns rows colors chars-per-pixel */
"64 64 241 2 ",
"   c #572C1D",
".  c #46281B",
"X  c #652D1E",
"o  c #63321E",
"O  c #4B2F24",
"+  c #452E20",
"@  c #532D23",
"#  c #5A2E26",
"$  c #4D3225",
"%  c #4C3429",
"&  c #4E382C",
"*  c #543225",
"=  c #5A3425",
"-  c #54352B",
";  c #5B352B",
":  c #55392D",
">  c #5C3A2C",
",  c #593827",
"<  c #563C32",
"1  c #5C3D32",
"2  c #583936",
"3  c #4F3830",
"4  c #672E25",
"5  c #653424",
"6  c #6B3425",
"7  c #64342C",
"8  c #6C362B",
"9  c #633B2D",
"0  c #6C3A2D",
"q  c #6B3A26",
"w  c #73352C",
"e  c #7B362C",
"r  c #733A2D",
"t  c #7B3B2D",
"y  c #743225",
"u  c #643D33",
"i  c #6C3C33",
"p  c #663D39",
"a  c #6B3E39",
"s  c #673730",
"d  c #743C32",
"f  c #7B3C32",
"g  c #703E39",
"h  c #783B34",
"j  c #702F29",
"k  c #5F402E",
"l  c #5C4234",
"z  c #5C4439",
"x  c #564034",
"c  c #66402E",
"v  c #78402D",
"b  c #644234",
"n  c #6B4235",
"m  c #64433A",
"M  c #6C433A",
"N  c #634A3C",
"B  c #6C4A3C",
"V  c #734235",
"C  c #7B4334",
"Z  c #74443B",
"A  c #7B443A",
"S  c #744A3C",
"D  c #7B4A3B",
"F  c #7B4A34",
"G  c #5F4B40",
"H  c #634C42",
"J  c #6B4C43",
"K  c #6A4945",
"L  c #754B42",
"P  c #7C4D42",
"I  c #734943",
"U  c #665144",
"Y  c #6B5245",
"T  c #6C544A",
"R  c #6C594D",
"E  c #7D5243",
"W  c #73544A",
"Q  c #7B524A",
"!  c #735B4E",
"~  c #795748",
"^  c #755E51",
"/  c #7B5D52",
"(  c #6C5952",
")  c #766255",
"_  c #7B6355",
"`  c #7C645B",
"'  c #7C695D",
"]  c #7B6857",
"[  c #7E6A60",
"{  c #833C2B",
"}  c #8C3C2C",
"|  c #893827",
" . c #933D2B",
".. c #833E33",
"X. c #8B3E34",
"o. c #943E32",
"O. c #8C432C",
"+. c #86432D",
"@. c #93422E",
"#. c #97462F",
"$. c #844334",
"%. c #8B4434",
"&. c #844936",
"*. c #8D4A34",
"=. c #84443A",
"-. c #8B453A",
";. c #844A3C",
":. c #8C4A3B",
">. c #934434",
",. c #9B4532",
"<. c #934934",
"1. c #93453A",
"2. c #934B3D",
"3. c #9A4A39",
"4. c #87503D",
"5. c #98513A",
"6. c #A45439",
"7. c #854D42",
"8. c #8A4D41",
"9. c #934C41",
"0. c #845344",
"q. c #8C5344",
"w. c #83544B",
"e. c #895A4B",
"r. c #915344",
"t. c #955949",
"y. c #845C52",
"u. c #8C5B52",
"i. c #935D53",
"p. c #9C5C53",
"a. c #A75845",
"s. c #B15C4D",
"d. c #826255",
"f. c #8B6355",
"g. c #84645A",
"h. c #836A5D",
"j. c #8B685B",
"k. c #95655A",
"l. c #9A6359",
"z. c #936B5E",
"x. c #9A6758",
"c. c #87705F",
"v. c #8B6954",
"b. c #A6695B",
"n. c #846E62",
"m. c #8C6C61",
"M. c #9B6D63",
"N. c #956C64",
"B. c #867264",
"V. c #8C7365",
"C. c #8B7569",
"Z. c #8C7A6D",
"A. c #87766A",
"S. c #947265",
"D. c #9C7264",
"F. c #95746B",
"G. c #9B746B",
"H. c #937B6D",
"J. c #9C7B6D",
"K. c #8E7C73",
"L. c #937D72",
"P. c #9C7C72",
"I. c #A57264",
"U. c #A37A6D",
"Y. c #A9766A",
"T. c #B37A6D",
"R. c #B3756A",
"E. c #A37D73",
"W. c #AC7D73",
"Q. c #A67978",
"!. c #B37D72",
"~. c #BB7D73",
"^. c #A36B63",
"/. c #C67D76",
"(. c #948273",
"). c #9C8274",
"_. c #9C8579",
"`. c #9C8A7D",
"'. c #97877A",
"]. c #9B907E",
"[. c #A48375",
"{. c #AB8475",
"}. c #A4857B",
"|. c #AB857B",
" X c #A48B7D",
".X c #AB8B7D",
"XX c #AC8A77",
"oX c #B38475",
"OX c #B3857A",
"+X c #BB857A",
"@X c #B38B7C",
"#X c #BB8B7C",
"$X c #B88475",
"%X c #A7907E",
"&X c #B8917D",
"*X c #C28579",
"=X c #C38B7E",
"-X c #CA8476",
";X c #D98A78",
":X c #CE917D",
">X c #E3917B",
",X c #E68D7B",
"<X c #9D8D83",
"1X c #9E9384",
"2X c #9E978A",
"3X c #A38D82",
"4X c #AB8D82",
"5X c #A88986",
"6X c #B38D82",
"7X c #BA8C82",
"8X c #B58A86",
"9X c #A49284",
"0X c #AB9385",
"qX c #A4948A",
"wX c #AB958A",
"eX c #A5998C",
"rX c #AB9A8D",
"tX c #AA9985",
"yX c #B39284",
"uX c #BB9283",
"iX c #B4948A",
"pX c #BB948A",
"aX c #B49A8D",
"sX c #BB998C",
"dX c #A59C91",
"fX c #AC9C91",
"gX c #AA9993",
"hX c #B39D92",
"jX c #BA9991",
"kX c #AEA294",
"lX c #A7A090",
"zX c #B2A193",
"xX c #B0A39A",
"cX c #AAA28F",
"vX c #C38E81",
"bX c #C88E82",
"nX c #C39384",
"mX c #C6978B",
"MX c #C89C93",
"NX c #D98E83",
"BX c #D9998D",
/* pixels */
"NXNX;X>X;X;X-X:X;X-XNXNXNXbX8XrXaXyX&X@X#XT.+X$XoX$X&X&X#X=X=X=X+X+X#XnX:X:XvX=X=XbX#XmX8X@X.X}.iX{.*XNX>X,X,X>X>X>X>X>X;X,X,X>X",
"a.a.a.t.5.5.5.5.a.a.s.s.b.^.[.sXaX.X@X&XmX#XnX+X&X&X&X$X#X#XvXnXbX+XT.R.R.~.*XbXbXbX+X@XW.}.XXiX0XXX!.a.6.s.s.6.6.6.s.a.6.6.a.a.",
">.@. . .#.O.O.O.O.O.@.} $.4.f..X0XD.f.u.l.i.l.t.e.4.4.F ;.7.8.r.r.;.r q t $.-.-.:.8.D 0.D w.j.[.%X).x.$.O.| #.O.O.*.O.O.O.O.O.#.",
"3.<.,.,.#.#.*.O.#.#.#.@.%.F e.XXyXf.P i V t C $.F C C F C =.$...$.C $.$.=.-.$.$.=.=.C ;.Z D w.U.&XS.0.&.5.O.#.5.*.*.*.*.*.#.*.#.",
">.@.@.,.>.@.O.+.*.O.,.>.2.&.e.%X.Xw.E D 7.;.8.8.&.:.;.;.;.;.=.$.;.&.&.:.:.:.:.2.9.8.7.;.D V n N.0XS.F :.>.3.@.O.<.<.>.>.#.<.>.>.",
"<.<.>.<.<.*.*.*.*.} } %.:.C E &X[.J B Z A A ;.;.8.7.;.;.=.=.=.=.C A C C f C C =.&.C A A A V 0 S.aXz.8 9.<.<.+.<.:.*.1.1.<.>.*.%.",
"-.-.>.1.<.%.*.:.r.1.>.%.:.F D &X.Xm m u M a d A Z V A d 8 w d V d V V i v r r r D i 0 i u 9 = S.aXS.0 ;.%.{ { *.=.&.X.1.-.*.-.:.",
"C f ..$...$.$.;.$.f t t C c S %X5X1 1 u M M a a d V D Z V V Z L M n n u n n u 9 0 9 9 9 1 1 < ).tX_.~ 0 6 6 r 5 r r h h h d d V ",
"* = =     =   = , = = = # > ] 9XwX] % O < =   # @ #   @ ; , * - $ - * $ * * @ - , * % % - H n.3XdXeX`.S.~ B c , , > s ; # ; - O ",
"] ) d./ d._ ^ h._ _ y.g.m.H.].cXwX_.n.n.n.y./ y.y.f.y.~ W T T ! ) ) ^ R ^ ^ T Y Y W ) B.Z.'.qXfX2XdXrXtX.XXX X_._.).G.G.F.F.H.A.",
"2X1XqX0X0XyX9XeXtXtX0X4X0XtX].].9XiXiX0XiXyX6X6X@X7X8X.X4X0XrXzXrXqX3X<X3X3X3X X3X3X X0XgXwXqXqX2X2XqX X.X.X X%X3X5X5X5X5XwXgXrX",
"9X`.0X6X6XuX8XyX0X.X@X@X@X.XXX[.{.@X{.{.@X6X@X@X7X#X|.{..X0X%X0X5X<X3X3X3X X X3X4X X_._.}.`.`.`.qX<X}.[.[.XX}.)..X4X5X8X8X5X9XrX",
"XXI.oXT.~./.~.vX*X~././././.-XbX*X$XR.T.$XoXT.T.T.R.I.I.U.).[.tX3X_.}.wX}.}.[.P.P.[. X.X|.5X4X5X5X5X|.7X#X#X@X{.Q.Q.Q.Q.Q.F.P.hX",
"f.C $.} { %.-.-.9.>. .o.,.o.o.X.O. .+.*.:.*.t $.......f V B h.%Xj.Q I Q L Z M n B L L I M M I Q Q Q w.7.0.0.P B s g g g a a ` 0X",
"4.v +.} | } { +.+.}  . .,.,.#.@.| | | @.@.O.| } o.X.X.$.r 9 ~ &Xj.Z s a u i d 8 8 0 i q 8 i g I n u i 8 0 V V n a Z a s a m _ tX",
"F o t *.O.>.>.O.{ <.,.,.#.,.3.,.,.,. . .@.@.,.>.,.} X.-.t q E {.Q i g 7.Z Z Z V d i r d Z A A Z M V Z A F S S M M M i i a 1 ! `.",
"&.o y O.%.@.>.| >. .|  . . .@.@.@.@.@.3.>. .} >.@.%.{ t C 6 D OX/ 1 u M M L I a a p s s g a p a a M a a i g I I I s 2 s p 2 K 5X",
"C o q F t e %.*.| | | { | { { t +...+.$.%.+.{ { y v t C V q E uX~ < m J m p a a g g a p K p p p p a a a a K I M p p K H m 2 ( 5X",
"~ c , , 5 q r 6 o q r q 5 5 q q   o o o o o o   o 5 5 = * : / 0Xn.z % - : ; : u 2 s ; - - % 3 3 3 - - - = : > > 2 1 2 2 3 2 ( 5X",
"(.] B N k ,   .   9 9 , ; b b k n B B B S S S n B b l b B ] '.zXwX` G 2 - : - ; : 2 2 - 2 2 2 2 3 3 3 % % % $ $ O O . % 3 G '.gX",
"cXeX9X'.(.C.V.V.S.H.H.H.(.'._.'.`.9X3X X.X.X.X X X).).}.9XrXzXfXhXwX4XL.V.V.m.V.S.F.F.C.L.K.K.K.K.A.A.A.B.B.h.h.h.j.g.V.A.K.hXhX",
"%X1X%X%X%XtX0XyX4X4X X0X0XrXfXfX9XqX0X3X0X0X0X4XiX4X4X4X X3X3X(.3X0XjX4X4XiXiXyX4X5X4X4X4X5X3XqX2X<X`.9X9X0X%X%XyX%X0XyX5X5XiXwX",
"0X%XXX[.XX@XXXW.|.[.Q.}.}.}.5XrXfX0X5X5XyX8X6X6X8X8X8X8X6X7XpXiXaXiXiX6XyXpX@X6X6X6X5X4X X).}.aX3X`.`. X%X%X@X@XXX{.XXXXXX@X8XuX",
"U.oXoXY.W.W.oX+X+X!.oX{.Q.E.Q.wX5XP.F.P.|.OXW.!.!.+X+X!.OXW.U.W.D.G.U.I.D.M.z.Y.U.U.U.U.S.g.m.}.4X`.).U.J.D.D.D.I.x.I.x.D.I.l.z.",
"C &.;.&.:.:.q.r.t.8.;.7.0.w.N.7X8X/ Z i 0 A r f r f ..f y r r d i 8 i 8 r 8 8 8 r 8 n 9 0 S M E.yXz.~ S D ;.;.=.&.&.-.&.:.&.*.&.",
"*.&.-.&.:.:.2.2...:.r.q.7.0.l.OXW.u u Z V &.f r f ..t w r t f f d d f f C C d C r w 0 6 0 n i U.&Xz.0.;.;.;.2.8.5.2.9.2.1.2.:.:.",
"&.&.$.&.*.:.*.:.2.r.8.7.D 4.x.@X&Xb 9 n 5 n D ;.$.C r r t C C C V d C A A =.C C d 8 8 8 d V 9 U.@Xu.V A 7.8.8.1.9.9.3.2.2.:.:.2.",
"F F C &.:.4.4.:.4.C A P D S ~ [.tXB c n n V V D V v q q 0 V n u d i V V C V d r d 8 q i M u = G.7Xe.9 V 7.=.=.-.9.2.2.2.:.:.&.&.",
"c c n V D D D V S S S S b , W  XaX' x - l B u 9 n n b c u b b b M M n M M n n i n n u u a 1 1 J.yXg.; 9 D 7.7.r.8.8.7.;.;.D A V ",
"9 c u u b n u u c n b : x U A.hXxX X) z x > : 1 l > > < < : < 2 < < : : > : ; ; = - - : < z T (.rXh.l * > 9 q u i d i i u u b b ",
"< - - - : - = - O > m Y ' (.9XfXrXgX3XL.[ ^ W W W Y K K T T T ( ' ' ' ' ' h.h.' _ h.n.[ [ K.<XxXeX'.] N l : @ * @ @ @ $ $ $ % % ",
"B.n.h.g.d.g.j.j.S.J.(. XtX3X9XhXzXqXqXrXwX0XiX5X4X|.5X5X5X9XqXdX2XeXrXrXhXaXaXaXaXzXhXaX3XfXfXrX9XhXrX`._.[.).E.J.J.J.H.H.(.Z.A.",
"tX XaXiXyX@X7X@XyX&X&X6X6X8XOX8X@X7X@X@X@X@X.X|.6X@X6X6X4X_.rXrXrXzXyX X@X7X@X+X@XXXXXXX&XyXpX8XuX&X&X@X&XXXXXXX&X&X7X7XaX3XwX0X",
"%X)..X{.$X@XbXvXnXnXuXnXvXvXvXvX*X=XnXuXuXnXmXnXbX#XvX#X@X X3X9X0X X).J.@XbXbX+X=X:X=XnXnXnXbXbXbX=X=X&X=X&X:XuXnX&XvX7X|.[.`. X",
"J.d.y.7.8.7.8.8.;.;.&.;.=.=.X.-.-.=.;.;.4.4.w.q.i.r.i.l.M.U.P.iXtX).D.D.Y.T.b.5.5.e.r.r.r.q.r.9.:.2.:.4.4.t.q.r.t.t.p.i.u.N.m.6X",
"z.D Z e h e e e ..f f f ..........=.$.v V V f f w 8 w g P z.f.iX.Xv.S F C +.$.t &.+.&.$.=.=.$.-.%.X.*.*.-.&.&.-.X.......h q.w.@X",
"u.g Z h =...-.X.t ..{ $.$...X.X.=.f h =.f f r f e w w 8 h u.Q 4XyXv.D F &.&.2.2.*.+.*.*.*.:.:.<.1.-.-.-.-.-.*.$.-.$.=.=.f 7.P |.",
"j.u s 8 h r w w w w y r t t f f e d w h r r r r i w s w g I L Q..Xd.b D ;.&.=.+.:.*.*.&.-.:.:.:.1.;.;.&.;.;.=.-.-.=.=.;.P Z Z W.",
"P.K u > u 8 0 8 q q 0 n n V V n d i i u d i i g h h g a a ; W }.0XS.B 9 V D &.4.&.&.&.&.$.C $.A A D Z D D D D S D D V V B , J  X",
"aX) z - < * , * , = * = , , , , ; ; ; ; ; # ; s ; 2 ; # 1 3 / iX9X`._ k , 9 9 6 r V C V n 0 u n u b c c n 9 c 9 , ; * * l $ / zX",
"gX9X(.B.` _ ^ Y Y W W B Y Y z U R T H B K W L B Y Y J K T ' L.gXqX1X'.A./ B b n 9 = = # * ; 1 : : : $ - : > > u > l b z Y ] '.cX",
"wXqXqXqXqXwX0X0X3X0X0X0XtXeX1XeX<X_.(.H.L._. X3X X X`.`.<X9XwXfXqXeXeX9X X_.'.).S.S.F.F.F.A.B.[ Z.F.V.C.H.J.J.J.(.[. X%X%XtXrXaX",
"5X}.5X4X.X}.[.}.5X}.|.5XwX9XwXrXeXrXrXrX0X0X X}.0X0X0X9XtXqX<X`.<X<X<XqX9X9X5X.X6X6XyXiXwXqXdXgX9X0XwX6X6X@XOX@X@X.X.X%X0XiX@X.X",
"MXmXsXmXsXiXsXMXmXjXmXjXaX3XwXrX1X`._.[.|..X@XyX%X.X X X4X4X4X4X5X4X3X4X0X X|.XX4X.X|.5X5X<X<XwX3X}.8XmXMXmXMXmXmXmXmXmXMXBXMXMX",
"b.x.l.f.w.D D w.M.N.^.G.F.g.5XwX(.J.{.@XuX7X+XoX#X@X{.{.{.OX+X7X7X7XuXuXuXuXnXnXnXmXvXpXiX5X`.rX[.z.D.I.!.T.T.T.T.T.$X+X+X~.R.R.",
"t y r v 0 6 q 0 4 4 8 s M B ).0XD.f.7.7.;.:.:.r.q.;.;.F A ;.8.8.r.t.t.t.t.t.t.l.b.b.l.l.z.f.V. XS.D P g =.......t t $.=.$...e { ",
"%.-.+.v v q 6 o 6 w 8 7 u u _..XE &.$.-.1.X.%.>.%.-.=.%.%.%.1.1.>.>.>.*.*.O.*.%.X.1.....A D f.@XM.0 ;.r =.{ %.>.+.$.$.$.X.1.o.9.",
"{ +.+.v r r r y 6 6 8 q u m  X[.D C ..1.9.1.3.3.3.2.<.2.2.9.9.3.o.o.>.>.<.2.<.<.>.1.1.$.A Z y.6Xv.9 P C =.f ..$.+.$...$.%.X.X.X.",
"r t r q r w 8 6 w 7 4 I 2 p 5XF.7 C ;.-.-.-.8.X.9.X.X.9.:.-.=.-.1.-.:.:.:.:.=.:.=.8.A A I s Q pXG.= V D V D w h f w w r f f f ..",
"V n 0 r i d i 8 a s ; 1 @ T wXP.9 V Z g g A 7...h h w h r w w w d r r v d r r r A P Z M a : / jXP.1 > 1 9 V q u i 8 4 7 7 s s a ",
"k : , , ; > ; = @ : 1 z G A.gX'.l b 1 , ; 7 9 9 # 7 7 ; , b k > n 9 , , , = * = = = $ O % z n.kX9X) N N N N l b u u b B J N M m ",
"A.B.c.c.m.V.C.C.n.m.L.'.<XdXdXeX(.(.C.h.c.m.h.g.m.m.V.V.V.B.A.B.B.c.h.g.h.j.c.S.V.n.C.K.(.'.eXkXlX1X'.`.[.(.L.).(.)._._.'.L.K.K.",
"].].`.`.9X X5X0XwX5XrXgXgXdX1X2XeXtXtX9X9X0X9X9XqX3X9X9X1X2XlXlXeX9X9X9X X X%X0XtX0XrXzXzXkXrX1X].cXeXrXrX%X9X9XtX9X9X9X9X1XqXdX",
"tX].9X9XtX9X5X0X}.3X4X}.3XqX9XeX X%X9X9X%X3X X3X3X<X<X1XeX2X2XeXrXrXtX9X9X X`. X X}. X X_.`.9X9X`.%X`. X X X}.4X}.`.3X<X<X<X2XeX",
"tX_.H.H.G.F.F.G.G.}.Q.P.E.}. X}.}.}.}.[.}.[.}.|.}.}._.5XqXeXqXqX5X}.}. X5X8X6X6X@X7XpXpXpX6X6X7X6X.X6X7X6XuXuXpXyX6X8X5X}.<X5XgX",
"H.d.K u p a i a i d s s i a P P P S n Z S L Q Q Q W J H _ L.qXwXF.m.y.y.u.u.e.e.i.l.t.f.l.k.k.k.^.x.Y.^.l.i.e.u.w.w.I I L g.Q.jX",
"N.u a u Z g s A h g d d d h d i d d d d d i 8 i i 7 u 1 1 g.`.6Xw.a 7 s 7 4 4 w w w j j j j w f h f h f h e w j j w 4 g s 7 N.8X",
"y.; M u i g Z A g h g f f A A h C C V f f g d d Z a a s < m Q.4XI s 8 s 8 h e 4 e t e f t t f f ..=.........e w w w 8 i g s Q 8X",
"y., b M a M Z u d n a a i n a d i i i i i d d a i a u u u $ [.}.K s i 7 5 8 e 4 6 y w r w 8 8 w w h d w h e f w 4 4 7 8 M s p 8X",
"m.- - l b b M b M M n M n B n n u n u a n M M M u M m N m l  X`.J = u I b 8 a i n V r n 8 0 0 u Z g V d 8 i s 7 i i a m u : K yX",
"`.U x - % + % % % O % % - & - - & - : : - : % @ - $ O % % R <X9XB.z + : 1 > b b > > ; ; : : 2 2 - ; # @ @ = = @ , * O : - < B.9X",
"fX`.Z.) ( U R K H H K G z U U z U G U U Y U K K T z U U R (.1XeXfXZ.U < % $ O O - - > < < < < 2 z z G H K W ^ / / ! ^ n.n.Z.kXfX",
"qXfXzXqXgXqXgX5XqX5X<XqX<X2X2XqXdXqXqXqXqXwXwXwXhX9XgX<XrXkXdXeX'.qX3X<X X`._._.)._.'.<X<X<X<X<XqXqX5XqX0XwXwXwXwX0XwXfXeXeXeX1X",
"3XqX9X'.qX<X<X<X<X<X<XqXgXgXxXfXgXgXqX2X5XqXqXqXwX9XqX'.fX2X2XeX<XdX2X<X9X9X<XwXwXqXqX3X2X2X2XdXgXgXgXqXqXqXqX3X3X3XqX<X<X1X<XdX"
};
