/* XPM */
static char *_630398817376[] = {
/* columns rows colors chars-per-pixel */
"64 64 62 1 ",
"  c #AE8334",
". c #B18637",
"X c #B38638",
"o c #B5893A",
"O c #BC8D3E",
"+ c #BF903E",
"@ c #C0913F",
"# c #BC8D40",
"$ c #BF9040",
"% c #C19242",
"& c #C5944B",
"* c #C8964D",
"= c #C59A4C",
"- c #C99C4F",
"; c #CD9C52",
": c #D19E55",
"> c #CDA353",
", c #D2A556",
"< c #D2A856",
"1 c #D5A459",
"2 c #DAA65D",
"3 c #D6AB5B",
"4 c #DAAD5E",
"5 c #DBB25E",
"6 c #E0B15F",
"7 c #D7AD61",
"8 c #DCAD62",
"9 c #DDB363",
"0 c #DEB964",
"q c #DDB669",
"w c #DDBA6C",
"e c #E2AE65",
"r c #E1B566",
"t c #E4BA66",
"y c #E8B967",
"u c #E4B469",
"i c #E9B56C",
"p c #E4BB6B",
"a c #EABB6D",
"s c #E5BE71",
"d c #EDBB72",
"f c #F1BD74",
"g c #DFC070",
"h c #E6C26C",
"j c #EBC26E",
"k c #F0C16F",
"l c #E5C073",
"z c #EBC474",
"x c #EEC973",
"c c #EDC679",
"v c #EFC87B",
"b c #F4C573",
"n c #F2C975",
"m c #F8C876",
"M c #F4C47A",
"N c #FAC67D",
"B c #F2CB7E",
"V c #FCC87F",
"C c #F5CE81",
"Z c #F9CF83",
"A c #F7D083",
"S c #F8D184",
/* pixels */
"spsssssssssssslsscssssssqscccccllgggggggwgggggggwwwgsswqssqswwsw",
"qqqqwuww79q7q77qsssqwssqqqqqqqqqwwwwwwwgwwwggggwwgwwqwqsqqswsiws",
"qqqqpwwsssssssssqqqqswwsssqq7qqqwwwwwwwwwwgggww7qqqqq77q7q7qqqqq",
"zzllsssswuwswswwqsssssfldcssssssgggggggggwgggwww7q77q7qqqqqqqqss",
"CCCccsssssssssssssssdsccllBBBBccCgvglcgcgllgllswwgwwswsqlcccccBc",
"CCCvcsssSAACAAASsssslssssccCCBccccccccccccBccllsvcBccBccclcccccf",
"vCvccclssssswssslcscllslslccBcccccgvcccvvBvvcccsvvvBBcBBcccsssss",
"vvvvCMCCCssCsCscBBBcBcccBBcccsccCCCCCCCCvBvvvllsccclccclZZCCCccc",
"ssssssssccCsCCsCccccccccclllclllggggssccccscssssBBBBBccccccccBBB",
"CsCscsCsCsccscCsccccccccCCZBCCCCCCBCAAAAccvvBBBClclccBCCBBBBcccc",
"sssssssssuwssqwslldssdslqqqqqqqeqqwgwisicdcMBCZZBBcBCCCZZCCcccss",
"sqqwqsqqqqqqqqqqqqqqqqqqqqqqqqqswsswsiwsqqssscfcBBBBcllsscssqqqq",
"sssssssssssssssssssssssssllsslslfdsddsssisqisiiwlsssqqqq7qqqqsss",
"CCCCCCCCCCCCCCCCvBvvccBBdllllllldsdsdsiscfcdsssiissssscslsccCCZZ",
"sssssCsssscsssssllcllldlBBCCCVVNBBCNMNMMdsssiiqiiwssscccccccvvBC",
"qq7778qq777787777e777q7q7eq77q72eee77772eeee7e77777777777777777:",
";;;;::::*;;:;;**;;*&&*;:::*****&***;:***:::::::::::;;***::;;;;;*",
"ddissiwsiisssssifMNVNffieiiiiiieiififffifffffffffffMfNffiiidiiii",
"dsfddfsiiiisiifdeiiiiee2e2e2eeee222eeeeeeiieiiee2eeqiiiddffffffd",
"uuiue88877227eqifie72eeeiiiieeeeeeeeeeieiiifiiiieeeeeiideiidfdie",
"iiiuuq8e7e77eeiifdiiiifMiiiieee2eeeeeeeeififffiiieeieiddiiffffii",
"sisiuuuuisiiisdl2eeiieee222222ee:2222::;eeeeeeeeeieeeeeeiiiidfff",
"iiissiiiiiiissiieidffieeiiiiiiiieifiiee:fiffiffifdiieiidieeeeiff",
"dsiddddseissiiiefdeeeeei2222::::eiifie:;eeiiiiii2::::22eiee2eeii",
"iusuiiiiiiiqiqiqfieifie2eeeiifffiee:22eefiie222:eeeiiifififiieei",
"ddddddsdsidsdddde2:2iffffffiieee2e2eeeifffffifiiffffffffifiiiiie",
"ueueeqqeuquueqei2:**::::;::**::*:::2eeiieeeeeeieieeeeee2ee2eeeee",
"dddsddddfffffcffNdie2e22:::2eeiiiiffffiiieiiififiiiiieeeiiiiiifi",
"uqqiqiquiqsieiiqiiiiidiiiffifiifiiiiiieeiiiiiieiiiieieieeeeeeiii",
"iiiiiiiseeeeequeeeeiiiiiiiiiiieiiiiiiiieiiiieieiieeiiiiieeieieii",
"dfcfdfffflfsfldliiiiieeeeeeeeiiiififfiffiifiifiiiiiiiiiiffffifff",
"ooXXoooo###########XX#&*####&###################################",
"><><>>>>5<5<5<555<5555555<55555<:233><<<<<<<<<<5<<<<5<5555555555",
"00hh0hhh000000050055555505555555qeq770575500005000000000hhhhhhxh",
"00000060hhhhhhhh00000050g0h0h00hsssshhghhhhhhhhhghhhhhxhhhhhhhhh",
"xxxxxxxxhhhhhhhhhghhhhhhhhxhhhxhlclchhhhxjxhhhhh0hhhhhhh5050hhhh",
"xxxxxxxxhhxhjxhjhhxxxjxxxxxxxxjjjhjjhhhhhhhhhhh5000h0hhtthhhhhxx",
"hh0hhhthxxxxxxxxhxhxjjjjhxhxxjxxhhhthh0005555555006000tthhjjhxxx",
"xxxxnnnnjhhhjjjxhhhhhhhhjhhhkjkhthyhhtth6hh65htth0hthjyjhhjjjjhj",
"hh0h0th0th0httt660000t6thhhhj6hhjhhhhthth6hhhhjjhxxxxxxxxbxnxxnx",
"xjkjkxkkjh6h6kyj60606tt655535555yjyhhyyhjjknnjkxkjkkjkkkkjjkjjjj",
"jjjjjjjjkxnxkxxxnnmmnnnnnnnnbknnnnnnxxnkjkjjjjjkjjjjjjjjkjjkjkjk",
"6655566666666666jh6yyyhthyyyhyhyyyyyyyyyyyyhyyyyyhyhhyyyjhjyyhjj",
"ttyytyttyyk6h6ky6t6jtty6yyyyyy6kkjjyyyyykkkkkkjkkknbbbbkkkkkkkkk",
"6yy6yyt6yykyyyyyh6666y6yyyyyyyyt66666664566666666666666646666665",
"kkkkkkkkkakkkkkkkkbkkkkkkkdkkkkkykkyyyyy666666y66666666666666666",
"mmkmmmmmkbkbbkkkmmkmmkmmmbbmbmmbmmmmmkmkmmmbmmmnbmbbmbbbmmmbmmmm",
"@@@@@@@@@@@@@@@@@@+@@@@@%@%@@@%%%@%@@@@@@@@+@@@+@@@@@@@@@@@@@@@@",
"<<,,<,,,;,,,333434323,,<331<3323841,,,33141313333<33231<,>,,1344",
"hyjypaaptrprrrrrqrrrrrrrrr9r9rrrtpttaappttpttutp6ttypspatutq9943",
"9r659999trprrrrrrrtppjdlpttppjaarrpzdptrrptutprrrrtuttapapr9743<",
"3333333373789qrrqrrrurrp99rurppu8999994397797794rrr9999944944444",
"aalajdda99qrrpdh9r9994974799rq99rr97737499899799rrr9rrrp8rqrrppp",
"9r9rr9q9ppttprrrpprq999999rrrr999943<3787994595879749ralppptrprr",
"<3,,<<<<rrrqr9q9trrrrrr9rrsppr97>>><339999449749943<3499trr99999",
"pppppppa99rrpppd99qrrrpprtpapr73=;<7rptp9rrrrrrrlp93>>>>rrr99999",
"prptprprrr99989799r9r99r9rtu94;==>99ppr9>;===>59pr993<;>p9944499",
"9r9qqr99asppptrraplaalaptazzzpr9349rtpr9r9949ral44799rpp984999rr",
"rprrrrrp4774444494475449379999993447743<73334799444499947979rplz",
"prprprprrrrr9qr99r9qr9999r99rrrtpdhppippqrpprrrqlppr99794449rrta",
"rrrprrrrr9rrqrrrprprrprprr979999rr999rrrrrtprr99<<<7599r79q9qr9r",
"ppppprlp99959999rprpprprrq997949997999rp99rrr9993<379qrrpjajdppr",
"337343339999qqrrprrpprrprrurrqr9rptipppprq9qrrrrpaaprrrr49977443",
"oooooooo. oooooO..o oo.o .ooooo....o..  ..  .ooo....o o. .oooo  "
};
