/* XPM */
static char *_630398827453[] = {
/* columns rows colors chars-per-pixel */
"64 64 151 2 ",
"   c #082D04",
".  c #0A3007",
"X  c #06320E",
"o  c #0C350D",
"O  c #0F380E",
"+  c #153A0F",
"@  c #0D2F1B",
"#  c #112F17",
"$  c #102D1B",
"%  c #0D3213",
"&  c #0D3A16",
"*  c #0E3519",
"=  c #0F3D18",
"-  c #133515",
";  c #133A14",
":  c #1A3917",
">  c #14361B",
",  c #153B1C",
"<  c #1A3D1C",
"1  c #203F1F",
"2  c #163324",
"3  c #183523",
"4  c #163C22",
"5  c #1B3D23",
"6  c #1A3529",
"7  c #173C29",
"8  c #1D3D2B",
"9  c #1F3D31",
"0  c #213F25",
"q  c #213E2C",
"w  c #233F32",
"e  c #0D4218",
"r  c #154015",
"t  c #1D4217",
"y  c #15421E",
"u  c #1C421D",
"i  c #1D491D",
"p  c #21461C",
"a  c #24491F",
"s  c #164521",
"d  c #1C4324",
"f  c #154A20",
"g  c #1E4A26",
"h  c #1E432B",
"j  c #1E4C2A",
"k  c #1F4230",
"l  c #224525",
"z  c #244A25",
"x  c #294D26",
"c  c #23452B",
"v  c #28462C",
"b  c #244B2C",
"n  c #2A4C2C",
"m  c #275126",
"M  c #2B5126",
"N  c #25522D",
"B  c #2C522C",
"V  c #2E582E",
"C  c #31552D",
"Z  c #345A2D",
"A  c #244532",
"S  c #2A4634",
"D  c #264B33",
"F  c #2B4D33",
"G  c #274738",
"H  c #2B4738",
"J  c #264B39",
"K  c #2C4C3A",
"L  c #314F35",
"P  c #324E3C",
"I  c #265332",
"U  c #2C5333",
"Y  c #265832",
"T  c #2D5A35",
"R  c #2D533A",
"E  c #2E5B3A",
"W  c #325434",
"Q  c #385737",
"!  c #345A34",
"~  c #395D35",
"^  c #33553B",
"/  c #39563D",
"(  c #345A3C",
")  c #395C3C",
"_  c #2E623B",
"`  c #356135",
"'  c #3B6237",
"]  c #35623C",
"[  c #3B613C",
"{  c #3F683C",
"}  c #42663F",
"|  c #416A3D",
" . c #2E4E40",
".. c #304C40",
"X. c #2F5441",
"o. c #335542",
"O. c #395644",
"+. c #355B42",
"@. c #3A5D43",
"#. c #375748",
"$. c #3B574B",
"%. c #365B49",
"&. c #3B5C4A",
"*. c #3F5F50",
"=. c #356242",
"-. c #3B6343",
";. c #376C42",
":. c #3D6A45",
">. c #3E634B",
",. c #3D684A",
"<. c #3D7047",
"1. c #415E47",
"2. c #415E4A",
"3. c #435F51",
"4. c #426544",
"5. c #436A44",
"6. c #486C46",
"7. c #42654B",
"8. c #48664E",
"9. c #436B4B",
"0. c #496C4C",
"q. c #437247",
"w. c #44714D",
"e. c #4C714D",
"r. c #51754F",
"t. c #446552",
"y. c #496652",
"u. c #456A52",
"i. c #4A6C52",
"p. c #476758",
"a. c #496559",
"s. c #457253",
"d. c #4B7353",
"f. c #4C7A55",
"g. c #4F7659",
"h. c #4F7A5C",
"j. c #517453",
"k. c #52745A",
"l. c #59775F",
"z. c #537A5B",
"x. c #597B5D",
"c. c #567D62",
"v. c #5B7D63",
"b. c #5C7D6C",
"n. c #55815D",
"m. c #578561",
"M. c #5D8364",
"N. c #5C8865",
"B. c #5F8D68",
"V. c #628660",
"C. c #6E926C",
/* pixels */
"b R ( d.4 U b D =.-.( j d j h d F c J @.@.P F ^ L 4.7.) F n Q ( ) n c W Q v l n l l x Q [ Q x a . z a u V d & B ( d c ( +.d * 4 ",
"( +.,.u.g b I R ( @.+.F b F R D ) F c c F F @.i.W ) ) Q n W ) ) @.F c n F F v l B W Q W C a +   C C t o ; ; y W :.b d T T d b -.",
"j h =.W n h -.=.R =.@.R D I U U ^ A 5 , d F 4.j.F W F l c T Q Q L W F v L Q Q n l W W B M Q x + M i z z u g z u z y n 7.>.U D ( ",
"d , >.U ( h i.>.+.( E U F F b h c l 0 c c F ^ @.U F b x F Q ( F v F F F Q 8.4.W z Q ~ W Q 6.} C z O a T b B T > d < g =.9.T h h ",
"( R c.9.9.D ,.( >.R b b I U b h c n F B U ^ W W W ^ ^ F / &.( n c F W F ( 0.4.F Q ) [ Q ! [ ~ a { t i x y m -.U 0.N & d b b j D ",
"R ( c.g.>.R >.R =.I h D E ^ E U ) ) ( F F ^ ( ( v F F F W ( n 5 ^ Q F F W ) W n W C B n B M a i ! m V T n B T z d.W d d D F h d ",
"b R 9.h.R +.-.-.( F c b b b R =.) ) ) n n Q ) ^ 4 c F c F K F c 7.^ c F T ( ) -.n y < n C z a V ; m ` [ :.T , , I U T @.+.I d 4 ",
"+.9.9.M.n =.( -.R I I b 4 * d @.z W Q U U Q Q n n F ^ F F @.&.@.d.R d b ^ ( e.M.[ g u ! ~ a p ` + V m z ! m y ! B U R U h d b ( ",
"d U T F F @.,.u.=.U R U U >.,.n / Q } l.6.l > v W ^ Q &.7.&.^ A ^ h.z.I , U :.=.W T x y m ` Y r ` m z ` w.5.U r b z n ( >.( F b ",
"I +.-.+.E =.>.-.( b b h d R -.I ) x C } ) x W e.F ^ 7.7.>.o.G A F ( ,.=.I b d z w.:.! B V ` m r ` C T ' [ ! b b 9.] ) =.>.T F I ",
"h F ( R ( +.-.+.( U U D h I +.F 6.C M ' ) W [ l.^ &.&.&.K J J R E D +.h.s.N j ( [ T N ` { _ V m z M T B u ; g ! e.-.W R E D b F ",
"F U U R U T ^ ( +.^ -.-.F U U g r.' ~ | 5.! W ) @.^ K S A J #.t.+.I =.h.s._ >.N.Y d f E ` Y m V i m V B y ; d ] =.T U U I b D E ",
"s.,.+.( R F I U -.U ( E j b R N 6.' ' | 6.) T Q @.^ G A J o.#.#.R E ,.,.=.X.<.m.] N m _ ` N f m ! ` ' [ I z b ! ! I U E R U R +.",
">.( I F F I R =.s.R D b 4 F >.9.Z C C Z [ ) 4.j.Q ^ ^ O.*.$. .k j ,.<.=.E =.;.=.` T _ ] { ] ` ` q.' ` ` ) m g u U n U ( R U n ( ",
"^ b d b U U ( =.g.R b F h b ( ] z a M C ! ) 0.v.R ^ O.&.&.$. .J X.,.=.=.=.=._ j N Y T T ] <.q.{ | ! B T U x y , b b F I D b b E ",
"0.( T R ( F b F 7.b c U b d 4 % p x ! ~ ! Q ) 0.W ^ +.( K o.$.t.,.Y h j E =.Y j N E T j Y ` { Y { Z z V V B b B I V U ( R U +.,.",
"d.( x F W ( n d ^ &.4.+.F c c F q J +.&.Q Q Q ) 6.6.@.0.( F 7.F d U ` =.9.:.N & g E d ] V f.` T ` { { ` B m T ( :.T b F R R +.u.",
"! n x W ( ) ( ) U / &.) K c v J q A J K ^ =.9.r.r.0.Q ~ x l 0.=.& f E ( Y N E :.N E N 9.] f.-.q.{ | { V i i z B ( n b U R I E +.",
": : d B W n W @.F ^ @.O.^ J F K H G A A F Q ) [ ~ ' ~ 5.Q x @.n ! T ] :.U g E f.g N N :.T ] E q.5.{ ' V z z U ] U b b U U D A k ",
"u : u W W c l n ^ ) @.@.^ ^ &.&.o.H G K @.-.Q C z W ) j.-.W &.c c.] Y ] [ N z U f N N j g T T N ` V V V B T 5.d.! T U R E R D b ",
"} n B 4.9.Q n F &.) / W P ^ &.t.#. .G K &.0.0.6.) ~ C Q n n i.@.( f g ] :.N f j g ! T , g :.w.g ` m z m z z ( 5.:.-.+.( +.( E U ",
"5.C W 0.j.) ^ ) @.( U J F R &.7.t...c 8 F ( [ 4.C C x W l u @.F y b :.s.-.g g V g I Y X N w.f.b 5.! m B b y l T ] ( U n b I F h ",
"Q x n 4.7.U F -.^ ^ K F K ^ O.o.$.o.G c c v l z ! ~ W } n d W , n :.f.f.:.T N I I g N & Y b ] I 5.T x U V d z W B I m d f b j , ",
"W z W 4.) l x 4.^ Q ^ +.@.@.^ o.A G o.&.>.) n p C.V.4.} n l 0.-.( :.[ :.9.w.] g 9.j T z ] X z ( N < & b N z N ] ! ) [ U U ) U d ",
"- z W W l l n U F Q F 5 J 8.>.A  .2 k k c n < C 6.d.6.[ 4.Q -.M.! j y g I ) ] ] N I :.] d f E ] - B ( U z B I z ] -.] U B B N z ",
"z x n n U W ) @.i.^ D O.@.^ J O.p.H H h F Q n ) : x B ! -.W F 7.b s y g I T m g N y m ( ` >.:.T E ] ] U j g d < d n I V U ! B z ",
"B x l z W ) 4.4.@.v c ^ &.F K &.G 9 #.K &.7.z u u x x B ( z > l y y y N ] :.E N g d I :.:.s.w.T @.T F U F j d d u z b x m ! T B ",
"x < < l n W ( @.F ^ F c F @.@.c G  .p.>.i.V.) n e.6.Q n Q n 5 U n N N T =.9.] N g V w.f.=.` :.] R d 4 I ( n d b I ! B g z V ! ! ",
"< < < n z l x ^ k.0./ F O.@.J @ *.o.&.5 8 7.[ 4.r.6.! C [ ) @.k.w.:.( V T ( Y d T E 9.w.T T =.] U h 4 U +.n y , B E T m m V V M ",
"x l z U n l v ( c.U c 4.u.D 3 A #. .&.8 4 F l C Q ' W W 4.) @.i.e.<.E b V :.:.] w.N N Y T :.:.I h 4 4 F ^ T n j r z Z ! ` ! B i ",
"Q l l F W n F ) ^ > 5 &.7.c A 3.#.#.b.v.i.9.W 4.! [ ! W Q x c ^ 9.:.I f I s.n.w.5.N f b N ( =.N h h h h I ( ( T d N V ! ` ` Z m ",
"5.x > x ^ W ^ @.5 F &.@.^ K &.7.G h t.u.@.W n j.W ' W x n d d -.:.-.N , f ` =.T ( U T I d f T U +.-.^ s d U W z ) [ Z m m Z ' ' ",
"n d d n c 4 3 c 5 D o.@...H J J 4 +.^ j ( 9.( T d.-.n b ! >.5.>.f.<.Y ;.& j j E =.=.=.R j 4 h b R l x U l n Q B B ' | ' Z Z Z Z ",
"D v S F F 5 , 5 K ^ P K J A A D F =.^ n +.-.U n ( d.f.=.( ,.0.:.f.;._ ;.y f j Y =.=.+.R I k D D ( l x F z W } [ x ! } Z M M Z Z ",
"v n ^ ) ^ c 4 c &.^ J G G A A 8 5 F j b ) =.^ +.U d.d.U n ,.9.N T f Y Y j s X._ ,.=.E R R R R R n < d l p C } } x C Z x a M Z Z ",
"b n / ^ W c F F &.P A c H J G h > , - d ^ ( T -.9.) d % b 9.>.s j e ;.Y =.j <.,.,.+.R R +.+.X.D 5 , l z < n [ ! C Z Z z a a Z M ",
"v F U U F F O.&.F v h A ^ o.K h h F d 4 I D b R d.F * 4 R =.^ n ] Y n.w.s.I ,.:.,.=.U U R O.K v c l Q W z W [ W ~ ~ Z a t a M M ",
"x n x v b Q ( @.h 8 c K &.&.P A b E D , F +.( E F d j ( R s s F _ _ n.f.;.Y ,.=.,.( D D R ^ J v n F @.W l U ) x ~ ~ Q a a M M M ",
"n n l d n Q ^ F c F K ^ &.O.K A h %.I * j >.>.+.F I R R I 4 d h Y Y ;.h.T E =.:.+.( K F F ^ P L F W @.F > n Q n Q C M x a M Z M ",
"n n z l U Q F , ^ ^ ^ @.^ ^ J c D d.+.* d =.o.h d.u.+.b D o.R s ] <.w.V.I ( T >.^ R U F R ^ / / @.@.4.n > B 5.) n x x a x C Z Z ",
"l u z x 1 v W l F ( c 4 ^ 2.^ c F D D R R U h 4 ,.%.R R -.>.+.D y m N N I ] 9.9.@.^ A c 0 v 1.y.8.0.7.^ D x l > / [ [ ! B x x C ",
"W u z ! n p x v % ^ / c v D J ^ 8 h h D J R X.+.+.E R R o.+.R D m _ ] E ! ] 7.-.( W F P L q q S F F c A F Q &.4.Q / ) Q W C C ! ",
"} p n 5.Q < 5 x < U v 4 U @.S d d D R +.X.o.o.o.%.+.X.%.o.R J j y V ] ! T ( -.4./ F F W L q 6 0 &.F c n F F ^ i.n n n n W ! W B ",
"} x ! 5.! z v d l Q n v @.7.F 4 A D X.>.,.,.o.I X.%.,.>.+.R J E b I ! Y n n ( =.@.^ L F v q w / k.^ J O.R 5 c ) B n x F W Q C n ",
"B C ' ~ x ! ! : - 6.v.4.U c D @.j k k X.,.p.,.X.%.%.=.>.+.J J ( 0.5.:.T n x F Q ) O./ / L q P 1.&.H S @.@.D F @.) ) Q Q } 4.) Q ",
"p M ~ M u ~ [ : l 0.z.4.Q F F ( X.k h h J X.%.%.X.X.X.%.X.k D +.:.! B B U F ^ Q / ) 8.8.1.L w P J v D O.@.K F ^ &.( ^ W Q ( Q Q ",
"t p x a u n ! u x Q F l @.4.I 8 X.X.k k 7 k J %.%.J J X.X.k J %.( d y b ( ( W W @.W P O.1./ P P c G J K F S c 0 W U F n l n B W ",
"a O < x u u n l % F W h b F D k @ k X.%.J k %.u.>.R J X.X.R X.7.d.! B ) 4.( l > 1.v > 0 P 1.1./ 5 c S c c c c 4 F F F c c c T @.",
"W 0 % # > 4 5 8 v c c K R A 8 k k 7 k k J =.,.%.R R D K U R +.-.4.) n F ) F v +./ @.F v n 1.8.7.K v ^ O.6 v &.O.S P H w w 2 6 o.",
"n 5 > 0 S c n F c h G ^ o.G w A k k  .>.%.>.>.J R E R R T ( ( =.W J n ^ @.F F 7.U ) @.( ^ @.&.^ 2.k.2.L / q 3 H P K w H a.*.w 6 ",
"l 4 l F W F F F A A K O.O.K G G k 9 J >.X.=.=.J F I I U U F I U 4 4 l U F 5 c Q > c F F F ^ ) @.L l.P 0 y.P $ O...O.P H ..w w $.",
", < c n v 4 4 8 K F o.&.%.K G G k s k k k X.,.,.D D U U I n c d v 5 v ( F 5 5 5 5 c v 5 , 5 F ( 0 @.q 0 8.O.q 1...2...w w 2 w a.",
"< < 5 l 5 > > 8 J F J ^ X.A h k #.k k J k +.h.c.R ( ( ( ( U n j 7.c ^ i.4.^ ^ l @.1.@.U c 5 v W P v L P L L P S P P q H 3.$.6 6 ",
"l < , d l 5 l b v 8 0 A A 8 8 h #.J X.X.D X.*.>.R R R E T U b d 0.0 F j.0.7.7.v F W @.4.@.F F ^ 1.v / 1.v L 1.L P ..H P $...w ..",
"n l u x n b c v d 4 3 h c c G R X.J X.X.h k R D D D D F b j d d @.% F j.&.@.0.n 5 5 c ) &.Q ^ @.n / Q L L L P 1.H O.O.H w 2 w 3.",
"Q n l n Q n 5 > q 4 5 c D K O.t.=.R X.J h h R R I R I F F b b h &.> ^ l.^ / i.^ @.F c F F n F Q v j.L 0 / q # 1.c v q H 3.P 2 2 ",
"z W W p < l n n F v ^ @.K ^ y.7.k J I J R J D h E +.>.( b , > * < c F 0 c Q F > F F n n ^ @.F , C 8.8.Q v / Q q P S q q v H S v ",
"p l x z < l l l > - l F c F &.o.k k k k J R I R c U R R b d d j > F R n F @.@.F 4.) ^ ^ ^ @.F < 1 C Q 0 0 v Q v 1./ P P P P H A ",
"C n n C C x 5 d l 5 F ( F @.7.-.k k k k I R R D d h j j d d g n , v F v c ^ ^ U 7.&.Q U ^ ) F 4 0 v x n L C Q 1.1.1.O./ O.P H v ",
"} ! B ! Q n p 1 < - l F c F ^ F X.X.R k J k j h D I D h d d b U F F n 5 c ^ W c ^ F c v F L n 5 } Q L Q Q Q Q 8./ W L L S v q q ",
"~ M z x C x z z x y x F v b ^ c K K K X.R J h 4 +.E F D d b I R 7.^ F c W 4.Q c F c c c v v 0 1 / Q C C C L C / v v c 3 3 0 q v ",
"M C x z B Q } ) ) F ^ Q F ^ @.R J J J R R R I h D h d 4 d l n U &.W v n ^ &.( F ) F F F L 0 0 1 C 0 v 1 n L Q L v v q 0 0 0 v H ",
"p Z } x C 6.r.4.W 0 d l < l F c R J k D J R R R D c d 4 d b U ^ ) W L F U F F F / F W ) / L 0 L v x x 1 x Q Q x 1 v L L L n H L ",
"+ ~ | M z } 4.B ) z l n l F @.U %.X.J k h D J R -.=.R E ( ] >.5.&.7.9.&.W v c L L F L 1.4./ Q Q : x x 1 1 Q L : 0 v Q 1./ L S S "
};
