/* XPM */
static char *_630398836582[] = {
/* columns rows colors chars-per-pixel */
"64 64 77 1 ",
"  c #130E00",
". c #161100",
"X c #1B1603",
"o c #1E1905",
"O c #221D0A",
"+ c #26210D",
"@ c #28230F",
"# c #2B2612",
"$ c #2E2916",
"% c #302B17",
"& c #322D1A",
"* c #36311D",
"= c #38331F",
"- c #3A3522",
"; c #3E3925",
": c #403B27",
"> c #423D29",
", c #46412D",
"< c #48432F",
"1 c #474131",
"2 c #4A4532",
"3 c #4E4935",
"4 c #504B37",
"5 c #524D3A",
"6 c #56513D",
"7 c #58533F",
"8 c #575141",
"9 c #5A5542",
"0 c #5E5946",
"q c #5F5949",
"w c #605B47",
"e c #625D4A",
"r c #66614D",
"t c #68634F",
"y c #676151",
"u c #6B6552",
"i c #6E6955",
"p c #6E6858",
"a c #706B57",
"s c #726D5A",
"d c #76715D",
"f c #78735F",
"g c #767060",
"h c #7A7562",
"j c #7E7965",
"k c #7E7868",
"l c #807B67",
"z c #827D6A",
"x c #86816D",
"c c #88836F",
"v c #868070",
"b c #8A8572",
"n c #8E8975",
"m c #8F8979",
"M c #908B77",
"N c #928D7A",
"B c #96917D",
"V c #98937F",
"C c #979181",
"Z c #9A9581",
"A c #9E9985",
"S c #A09B87",
"D c #A29D8A",
"F c #A6A18E",
"G c #A8A38F",
"H c #AAA591",
"J c #AEA995",
"K c #B2AD9A",
"L c #B6B19D",
"P c #B8B39E",
"I c #BAB5A2",
"U c #BEB9A5",
"Y c #C0BBA7",
"T c #C2BDAA",
"R c #C5C0AC",
"E c #CCC7B3",
"W c #CDC8B4",
/* pixels */
"zjhjffjj>fNMNBNAVndfBxM97liashxcxdhxjfhc:lNnnbCCCMjhMxc75ldtdjnx",
"jzxxjdfl3xNNbmCAMVVnxdc6wcdadxbcxlcjfjfj3lNNCCAZAMMNjjB6tnjafjcl",
"jhdieeif<lnNNAHAVFVBBnn,icdiaffddjliuitf9jvnZADFAAAHMcx,tlaidfjd",
"65433<,,>*;-1-&-%33:,:6,<4,4957725:=<==,#-->360e20,;4:,:,4247674",
"MNMMMNncckB;qnnx%lVMBlcBVFNNVbcxxm99zusugghhjzxbZV72JABMnVVVABBM",
"bMMMbnBVmjA9hnkA6VVcMMnBNVNcMVVbjDiqnfczmvmnnNvnxMfuLMBMVVVVVNNN",
"xnVZVVBMihZ9pBdB2cVcnMMBBNVcnNNjpCp4lhjbzkvzvbkzhci0AcNcnnMNNNNM",
"nnbcnMnxjBB3qCkD4alxxcbbBnVBVNnlbmu1bzilCmCCCCmnzAu4cllxcznMMVMb",
"clchbcczxjb29kbb:fidafflfccfxcjjghe-sgmCmCCCkmmnMci7iaadhflafcjz",
"bzbBnzznbvB54uvZ6ajlxcxMVbbnMcxxhCp-8kCvhkkgkmmmbV95cjczzbbbbzNc",
"66>2,692658&&*,1@%<:,2<:,:3w644383*--**;-1;$-;**73;:w746966<<443",
"zdihh;ecjhhdzgse20lsffa=X:9e9we9yyypw9>.qFDvjsjma9VVdcVi;hbladdx",
"FBAGK#eZhhhjbzcljzjisdB65BSVVFVVmCSCnZz#qHcbNZAbhVnxBzBG>TBGSVJF",
"nbMbSouziurupsghitwtsrx,iDncbblcvdvzbch#wDjbjknzxlfscjln6ThcBVVz",
"bzcBzozCiiiuagspr739reh,fDxMnncnzjMzcNc$bChbnnBbBbl=4czl>SVBBVMb",
"cNcne>Zeuihaahhhr999rsf;uBnVBVVVZBSBbNb-Fxhcvcbbnlzfshnj2VFVNzBb",
"Nbbnz7Ntsjajjsffatwir0i,wNMVVBVnbZCbMBj<HzzZBMBMnMjdcsbv:bHMzzcN",
"NMNNj7njdxcfslcdfiftwfa34FVMMi6zkljnMj,+SmnNbcczhlbdxAZc>fZAAnzM",
"trw72=3<,o;:%&;#===%@*&O+%@@%+X+O# O#Oo-832>-;;=@@#*#-;2-<24954u",
"ZVAAVVVAF<lVBbBnxj+6xlBzMtdxdcBMCC<eFHSSSSNzbnnnVj+aCzxdnCMcNNMZ",
"SFKPKPKUTwVIFGJVJI=cEJYPYJJVVVBVZRhnYVSVHGSCVVVVSP,NJnACbZBMNZNN",
"bxMMMBbMF<BVzcMMMK,lGcxBVMbxncccjD5rJdxjzCNCVMBVSJ-jAcbnMMbccccM",
"lflzbBNbB*sFnbnVFG;fBNBVMMMbjinccN45PcnllnBBBMMNGB$fNlzbzxcccllz",
"xlBNMnNnV;aFBMjjnM%xBcMlxxlbnfBnbM0,JMNbbMnccbxjnx&cMhMzcczzxbbc",
"nbMNbVbMB*iFMclxVj@jVcnxcxxdcBbMcV33GbnnNnxjxcxxnh#kMjbxzxlcbclz",
"bNVANnxzi&iVllccbn:jVcMNcxcxMVbMMz=3GllNnNnbMnbMCn&hAcCnMbzzccbM",
"VMbbzsllt;0xdilMFV,iVNMBVMnMVBMVNd:4VclnZDACSVNVAZ:pAbNNMcMMMNcn",
"tta60ui99==663669w@:9,25<,>:<<34>3:#5655eyyyat0rip-3i00ee5w2457e",
"u>tsf4@4<scf3,0r<65et56**:,<4777396;6t92O>1>>*#%@@-*&$-2;=e77945",
"cfDxxs,sVPPGVVFVxcNNNVB<witidhljnfailbfs*kACCNNDDdy89jzMt5caslzN",
"fts0rr<VBnbcMbcMlhbhsdx>wtwettsauruuw44u-mKCNmbCDJYISNcb7,ziijdj",
"lfiwit<MMbBcnBnbVsfsxjx2wrwifiaadgsitr9w*mHbvCmMbZnCZMMNa4crtjsj",
"lhsscs6BnxMNZBcBBBijczc720dtdslxbzjfhddd%CFzxCjMCCNNNMNZa6tjiafl",
"xjjfxi5ccnnMBMBBMVnMccM29xrruzasipflkgii<AJnbnCbMNncZZxZt:Ndfaiz",
"fiitiw7lfnnnnnBnnBVVjlc,eu656wstpirq880y>udttyzihtdiiirt9-Badirf",
"<;-%*;;4:<3:=553;;<5,<7-*,4&*%;,>:;*&#&*=$$&&#ooX+###X#==&443454",
"MnbllMMcxhzw5cjljlznMBAFJDFc#nZcbnNCZCNMCbcbcc3wjizSaeKncblVMVVM",
"bBVBBSBzBcVa9ZjxnMMbBBMAZAZB>KncmMNCCCNnnZCccD9lnbzAl9JcNMNBBVVM",
"lcMMMMnlcxVs6NfjxxBMMVnBBjMM,ZNMbnNNCNblnNMdfN7sMllAf6JlMxNMBMMM",
"MMcbcxnBccMi<cxncfBBbnxxMFFB<xdxzxxxbMNnnnblbN90NNnMf3MhzxjbbcMc",
"xzzclczzzxxs:hjdlhjalxcBAJVn2uudhdhcbjjjzzjzfM36hzizf<hisafzxfNf",
"nlMbMxcnxlxr>tdjxMnjnBlABBGb>cbdddMjdNcxlzcNbM43wlxNh5clbxfcMnzN",
"45,::<<>>:3#+$=:*,;%@*+%$>4>O>%>:$O&==573;=;-,$$;;=>=@42;;5<<023",
"zjus6X3sredia9<:7<:35ti#6xuaj07cchtjj@rBhaiassfsi45fbxzsw$zjdtdl",
"SBSSL*KYVclshfhxljhcNMJ6SLZAAAJHDZJDF*wAzzzcclbxBxbMhflMn2YVVMHJ",
"MnncS-JhsfhlxllxdcstfeM4NVNNbAAzbzznD&acsfsaiajjhair0sfss5IxMABc",
"czlSl-Bzlxccclljff93tic3jSnNBBxzznjNzOnzihdasjhjdja7&3ijs-DVNMxx",
"ncnBe-Bzdsfsljxaitfseix3iInNbjbnclzni>Zsslstilsjllaseshdd@DVlxBM",
"Mnznl-Bstfddddtiistssil<9GScmfbbNbvbz9Duhklhzhhllaiiauiha%bBxbbM",
"BMcMx=hzfut0900t9weisic92SNnBBjbmkkNz6Bzknbkbjdbznhajdbnj&rBVBjM",
"ei655o=,>=:$.@@%&%--*%-+$$$-<*#5-$&,*X>,-*-*$>&#&=::3;&<2=26443i",
"BVMcnjhlVVGl>bZBxhczjhlhxxN6$jnyuupgddhgxsdi%bZt40x43VnBVGJVFJVB",
"VVVDVDVGAHLV>HKDDNDSDSDDDAHV-HACDFFFHLHDADHG;HTCDFRh4EPPPVVVJVFn",
"nccnxVMcbNZV>SSxczNNBNNnxNAn>DznNBBNNNnNbZmZ-nSbBMGc4GBBVbBxbfMn",
"cxzjlMjdVMnx*xSnzzcnBnNnZBJj3BjfnmNNBnmCAmsj=dFAVGPa6VMlbcbxMcbj",
"xzzccjsMNNNx=dDBNNncnznxxzVd-Zbrhzbbmnmbxssj-rLNnlV66VhMxbxlbcln",
"zNNcBVbZNnCx+jDmNNVbxjxbbzme$Zzsdulnvjsaufhz&fBBcxV,6Vlcxclxclzl",
"NBBnNZNnNnbs@kAkbnNxnNNNNnVh*ZxygsddiasahisdXdSdnVVw2Vnccbxcbxcb",
"BMAANNVAVbj0*fBjxBFADZAANNVz*nANNvmmbvkklshiOaDjjnVf<MNnMBbBBbMB",
"rta069999yi6*>9e9tssa9ee0ey8o-2>423>>42<><>=O;4347w0&0w0weweieew",
"0st20fy5><8ehgs0re95957;5590ree849915au7&440hlttww777w0=etwtsaut",
"xnxfnCcb;abnDHHZcbcjjxb4kjspNzzvvxvxmBvb2icMVPVVlnnfczz5hfifzzxz",
"ldsdse6a2zmxNBCbjjxxfjb,udaajhhzxsuipe9h3hVMbVVMjlcffhz3sstsjhlx",
"zdjhiiuu-hNmNnCZBdszhfb2pdpssvzzgzzddaei;dMMMVNVBdffflc<uaisjhlx"
};
